<svg id="Layer_1" data-name="Layer 1" xmlns="http://www.w3.org/2000/svg" viewBox="0 0 367 435"><defs><style>.cls-1{fill:#030608;}</style></defs><path class="cls-1" d="M154.9,115.12v93.46h21.29V109.3c.5-4.66-1.5-13.64-1.5-13.64-7.82-16.46-31.7-4-31.7-4L79.12,131.35V19.67H57.54l-.1,188.91H78.57V157.09l72.67-45.63C155.73,110.13,154.9,115.12,154.9,115.12Z"/><polygon class="cls-1" points="220.65 155.75 297.82 105.53 287.17 86.9 198.36 144.78 198.36 234.63 121.72 283.37 121.72 409.75 144 409.75 144 294.35 220.65 245.74 220.65 155.75"/><path class="cls-1" d="M256.32,376.77c-3.33.88-19.4-.16-29.28-8.62V357.21l63.76-41.93.29-.16v0l3-25.79-.15-.2L293,288c-17.16-19.88-43.92-23.08-66.93-11.46A62,62,0,0,0,192.37,322c-3.22,18.22.25,38.84,12.37,53.31v34.61H227v-18c16.71,7.83,35.88,8.76,52.72-.21a58.1,58.1,0,0,0,24.59-24.87c.3-.55,4.25-9.38,5.21-13.09H290.05C275,378.94,256.32,376.77,256.32,376.77Zm-43.41-36v0c-.08-.8-.12-1.58-.16-2.38-.5-10.87,1.82-19.42,5.17-26A41.81,41.81,0,0,1,261,290.18a35,35,0,0,1,17.13,7.67h0Z"/></svg>